<svg id="레이어_1" data-name="레이어 1" xmlns="http://www.w3.org/2000/svg" viewBox="0 0 105 419.92"><defs><style>.cls-1{fill:#b8ff52;}.cls-2{fill:#f2f2f2;}</style></defs><rect class="cls-1" x="0.5" y="210.42" width="104" height="104"/><path class="cls-2" d="M104,210.92v103H1v-103H104m1-1H0v105H105v-105Z"/><rect class="cls-1" x="0.5" y="105.42" width="104" height="104"/><path class="cls-2" d="M104,105.92v103H1v-103H104m1-1H0v105H105v-105Z"/><rect class="cls-1" x="0.5" y="0.5" width="104" height="104"/><path class="cls-2" d="M104,1V104H1V1H104m1-1H0V105H105V0Z"/><rect class="cls-1" x="0.5" y="315.42" width="104" height="104"/><path class="cls-2" d="M104,315.92v103H1v-103H104m1-1H0v105H105v-105Z"/></svg>