<svg id="레이어_1" data-name="레이어 1" xmlns="http://www.w3.org/2000/svg" viewBox="0 0 210 209.62"><defs><style>.cls-1{fill:#ffab40;}.cls-2{fill:#f2f2f2;}</style></defs><rect class="cls-1" x="0.5" y="0.12" width="104" height="104"/><path class="cls-2" d="M104,.62v103H1V.62H104m1-1H0v105H105V-.38Z"/><rect class="cls-1" x="105.5" y="105.08" width="104" height="104"/><path class="cls-2" d="M209,105.58v103H106v-103H209m1-1H105v105H210v-105Z"/><rect class="cls-1" x="105.5" y="0.15" width="104" height="104"/><path class="cls-2" d="M209,.65v103H106V.65H209m1-1H105v105H210V-.35Z"/><rect class="cls-1" x="0.5" y="105.12" width="104" height="104"/><path class="cls-2" d="M104,105.62v103H1v-103H104m1-1H0v105H105v-105Z"/></svg>