<svg id="레이어_1" data-name="레이어 1" xmlns="http://www.w3.org/2000/svg" viewBox="0 0 315 419.92"><defs><style>.cls-1{fill:#b8ff52;}.cls-2{fill:#f2f2f2;}</style></defs><rect class="cls-1" x="105.5" y="210.42" width="104" height="104"/><path class="cls-2" d="M209,210.92v103H106v-103H209m1-1H105v105H210v-105Z"/><rect class="cls-1" x="105.5" y="105.42" width="104" height="104"/><path class="cls-2" d="M209,105.92v103H106v-103H209m1-1H105v105H210v-105Z"/><rect class="cls-1" x="105.5" y="0.5" width="104" height="104"/><path class="cls-2" d="M209,1V104H106V1H209m1-1H105V105H210V0Z"/><rect class="cls-1" x="105.5" y="315.42" width="104" height="104"/><path class="cls-2" d="M209,315.92v103H106v-103H209m1-1H105v105H210v-105Z"/></svg>