<svg id="레이어_1" data-name="레이어 1" xmlns="http://www.w3.org/2000/svg" viewBox="0 0 315 209.23"><defs><style>.cls-1{fill:#861aff;}.cls-2{fill:#f2f2f2;}</style></defs><rect class="cls-1" x="105.5" y="104.73" width="104" height="104"/><path class="cls-2" d="M106,105.23H209v103H106v-103m-1-1v105H210v-105Z"/><rect class="cls-1" x="105.5" y="0.12" width="104" height="104"/><path class="cls-2" d="M106,.62H209v103H106V.62m-1-1v105H210V-.38Z"/><rect class="cls-1" x="0.5" y="104.73" width="104" height="104"/><path class="cls-2" d="M1,105.23H104v103H1v-103m-1-1v105H105v-105Z"/><rect class="cls-1" x="210.5" y="104.73" width="104" height="104"/><path class="cls-2" d="M211,105.23H314v103H211v-103m-1-1v105H315v-105Z"/></svg>