<svg id="레이어_1" data-name="레이어 1" xmlns="http://www.w3.org/2000/svg" viewBox="0 0 315 209.62"><defs><style>.cls-1{fill:#ffab40;}.cls-2{fill:#f2f2f2;}</style></defs><rect class="cls-1" x="53" y="0.12" width="104" height="104"/><path class="cls-2" d="M156.5.62v103H53.5V.62h103m1-1H52.5v105h105V-.38Z"/><rect class="cls-1" x="158" y="105.08" width="104" height="104"/><path class="cls-2" d="M261.5,105.58v103h-103v-103h103m1-1h-105v105h105v-105Z"/><rect class="cls-1" x="158" y="0.15" width="104" height="104"/><path class="cls-2" d="M261.5.65v103h-103V.65h103m1-1h-105v105h105V-.35Z"/><rect class="cls-1" x="53" y="105.12" width="104" height="104"/><path class="cls-2" d="M156.5,105.62v103H53.5v-103h103m1-1H52.5v105h105v-105Z"/></svg>