<svg id="레이어_1" data-name="레이어 1" xmlns="http://www.w3.org/2000/svg" viewBox="0 0 315 209.62"><defs><style>.cls-1{fill:#2a66ff;}.cls-2{fill:#f2f2f2;}</style></defs><rect class="cls-1" x="105.5" y="104.88" width="104" height="104"/><path class="cls-2" d="M106,105.38H209v103H106v-103m-1-1v105H210v-105Z"/><rect class="cls-1" x="0.5" y="0.27" width="104" height="104"/><path class="cls-2" d="M1,.77H104v103H1V.77m-1-1v105H105V-.23Z"/><rect class="cls-1" x="210.35" y="0.27" width="104" height="104"/><path class="cls-2" d="M210.85.77h103v103h-103V.77m-1-1v105h105V-.23Z"/><rect class="cls-1" x="0.5" y="104.88" width="104" height="104"/><path class="cls-2" d="M1,105.38H104v103H1v-103m-1-1v105H105v-105Z"/><rect class="cls-1" x="210.5" y="104.88" width="104" height="104"/><path class="cls-2" d="M211,105.38H314v103H211v-103m-1-1v105H315v-105Z"/></svg>